<svg xmlns="http://www.w3.org/2000/svg" width="146" height="48" viewBox="0 0 146 48" fill="none" role="img" aria-label="MyFlip">
  
  <g transform="translate(0,4) scale(0.416667)">
    <rect width="96" height="96" rx="24" fill="#1B4332"></rect>
    <path d="M27 69 V31 L48 54 L69 31 V69" fill="none" stroke="#A8D5B5" stroke-width="8.5" stroke-linecap="round" stroke-linejoin="round"></path>
  </g>
  
  <g transform="translate(54,33)" fill="#16261D">
    <path d="M5.24 0L1.78 0L1.78-18.90L8.40-18.90L11.66-2.43L12.15-2.43L15.42-18.90L22.03-18.90L22.03 0L18.58 0L18.58-16.28L18.09-16.28L14.85 0L8.96 0L5.72-16.28L5.24-16.28L5.24 0ZM35.59 5.40L27.16 5.40L27.16 2.43L34.45 2.43Q35.21 2.43 35.21 1.62L35.21 1.62L35.21-1.75L34.72-1.75Q34.51-1.30 34.05-0.84Q33.59-0.38 32.80-0.08Q32.02 0.22 30.81 0.22L30.81 0.22Q29.24 0.22 28.07-0.50Q26.89-1.22 26.24-2.48Q25.60-3.75 25.60-5.40L25.60-5.40L25.60-13.39L29.00-13.39L29.00-5.67Q29.00-4.16 29.74-3.40Q30.48-2.65 31.86-2.65L31.86-2.65Q33.43-2.65 34.29-3.69Q35.15-4.72 35.15-6.59L35.15-6.59L35.15-13.39L38.56-13.39L38.56 2.38Q38.56 3.75 37.75 4.58Q36.94 5.40 35.59 5.40L35.59 5.40ZM45.79 0L42.23 0L42.23-18.90L54.11-18.90L54.11-15.66L45.79-15.66L45.79-11.10L53.46-11.10L53.46-7.86L45.79-7.86L45.79 0ZM60.16 0L56.75 0L56.75-18.90L60.16-18.90L60.16 0ZM67.34 0L63.94 0L63.94-13.39L67.34-13.39L67.34 0ZM65.64-14.96L65.64-14.96Q64.72-14.96 64.08-15.55Q63.45-16.15 63.45-17.12L63.45-17.12Q63.45-18.09 64.08-18.68Q64.72-19.28 65.64-19.28L65.64-19.28Q66.58-19.28 67.20-18.68Q67.82-18.09 67.82-17.12L67.82-17.12Q67.82-16.15 67.20-15.55Q66.58-14.96 65.64-14.96ZM74.52 5.40L71.12 5.40L71.12-13.39L74.47-13.39L74.47-11.77L74.95-11.77Q75.41-12.55 76.38-13.16Q77.35-13.77 79.16-13.77L79.16-13.77Q80.78-13.77 82.16-12.97Q83.54-12.18 84.38-10.64Q85.21-9.10 85.21-6.91L85.21-6.91L85.21-6.48Q85.21-4.29 84.38-2.75Q83.54-1.22 82.16-0.42Q80.78 0.38 79.16 0.38L79.16 0.38Q77.95 0.38 77.13 0.09Q76.30-0.19 75.80-0.63Q75.30-1.08 75.01-1.54L75.01-1.54L74.52-1.54L74.52 5.40ZM78.14-2.59L78.14-2.59Q79.73-2.59 80.77-3.60Q81.81-4.62 81.81-6.56L81.81-6.56L81.81-6.83Q81.81-8.78 80.76-9.79Q79.70-10.80 78.14-10.80L78.14-10.80Q76.57-10.80 75.52-9.79Q74.47-8.78 74.47-6.83L74.47-6.83L74.47-6.56Q74.47-4.62 75.52-3.60Q76.57-2.59 78.14-2.59Z"></path>
  </g>
</svg>